# xmcd CD database file
#
# Track frame offsets:
#	150
#	15800
#	31354
#	51815
#	65690
#	76709
#	95358
#	114171
#	131093
#	145447
#	169948
#	187278
#
# Disc length: 2714 seconds
#
# Revision: 0
# Processed by: cddbd v1.5.1PL0 Copyright (c) Steve Scherf et al.
# Submitted via: CDex 1.40Release
#
DISCID=9d0a980c
DTITLE=Andin Flute - Music Traditional and International
DYEAR=1900
DGENRE=Native American
TTITLE0=Unchained Melody
TTITLE1=Alturas DelMachu Pichu
TTITLE2=My Heart Will Go On
TTITLE3=The Godfather
TTITLE4=El Chulla Quiteno
TTITLE5=A Woman In Love
TTITLE6=Pituco
TTITLE7=Guantanamera
TTITLE8=Besame Mucho
TTITLE9=Coando Calienta El Sol
TTITLE10=COrazon Salvaje
TTITLE11=Amor De Mis Amores
EXTD=ID3G: 64
EXTT0=
EXTT1=
EXTT2=
EXTT3=
EXTT4=
EXTT5=
EXTT6=
EXTT7=
EXTT8=
EXTT9=
EXTT10=
EXTT11=
PLAYORDER=
